<?xml version="1.0" encoding="UTF-8" ?>
<svg height="188pt"
    version="1.1"
    viewBox="0 0 270 188"
    width="270pt"
    xmlns="http://www.w3.org/2000/svg">
    <g id="#ffffffff">
        <path
            d=" M 75.08 7.31 C 81.79 5.75 89.11 6.25 95.90 7.23 C 98.92 7.54 102.12 6.81 104.99 8.07 C 110.60 8.56 115.81 10.82 120.83 13.19 C 121.85 13.51 122.87 13.83 123.89 14.15 C 129.06 16.42 134.84 15.98 140.05 14.12 C 141.06 13.76 142.07 13.43 143.09 13.12 C 146.28 11.76 149.72 11.11 152.91 9.74 C 155.92 8.97 158.98 8.34 162.10 8.17 C 166.30 7.09 170.74 7.81 175.05 7.66 C 182.39 8.00 189.75 7.11 197.09 7.70 C 204.63 8.96 212.40 8.56 219.86 10.24 C 222.21 10.46 224.64 10.35 226.90 11.15 C 231.00 11.47 235.12 11.74 239.12 12.79 C 240.11 13.17 241.10 13.52 242.11 13.86 C 244.08 14.62 246.12 15.15 248.14 15.78 C 249.17 16.12 250.22 16.43 251.28 16.70 C 252.24 17.43 253.22 18.15 254.19 18.88 C 256.23 21.32 258.51 23.77 258.97 27.07 C 259.78 33.33 258.04 39.72 257.76 46.02 C 257.79 83.38 257.74 120.74 257.79 158.10 C 257.68 159.68 257.77 161.43 256.79 162.77 C 255.32 164.39 252.99 164.39 251.10 165.20 C 248.77 165.34 246.36 165.66 244.12 164.82 C 240.73 164.28 237.36 163.61 233.95 163.17 C 232.62 162.75 231.29 162.37 229.99 161.88 C 226.57 161.55 223.15 161.13 219.82 160.24 C 218.24 159.64 216.57 159.40 214.92 159.11 C 205.03 157.81 195.01 157.25 185.02 157.31 C 173.48 157.76 161.94 157.02 150.40 157.22 C 150.39 140.15 150.36 123.07 150.41 106.00 C 150.36 102.44 150.92 98.51 148.77 95.40 C 143.22 86.52 137.77 77.57 132.31 68.63 C 131.25 66.41 129.24 64.97 126.73 65.17 C 120.57 74.58 114.99 84.34 108.89 93.79 C 107.74 95.65 106.43 97.60 106.51 99.89 C 106.46 119.50 106.54 139.11 106.48 158.72 C 106.09 158.61 105.31 158.40 104.92 158.29 C 103.65 157.84 102.37 157.35 101.01 157.30 C 87.97 157.13 74.92 157.35 61.90 157.95 C 58.30 158.48 54.47 157.76 51.04 159.15 C 48.65 159.38 46.25 159.48 43.87 159.76 C 37.10 161.52 29.89 161.40 23.13 163.22 C 20.55 163.24 17.78 163.83 15.32 162.91 C 13.35 161.14 11.68 159.08 10.18 156.91 C 8.98 155.15 8.66 153.00 7.79 151.09 C 7.57 149.68 7.38 148.28 7.20 146.87 C 6.21 144.37 6.67 141.63 6.58 139.01 C 6.57 109.67 6.53 80.33 6.53 50.99 C 6.57 39.99 5.61 28.97 6.69 18.00 C 7.26 17.70 8.39 17.10 8.96 16.80 C 9.50 16.65 10.57 16.35 11.11 16.20 C 14.55 14.71 18.46 15.16 21.94 13.84 C 23.35 13.62 24.76 13.44 26.17 13.24 C 29.67 11.96 33.42 11.59 37.08 11.12 C 39.03 10.49 41.09 10.45 43.11 10.24 C 48.85 8.60 55.04 9.09 60.86 7.78 C 65.60 7.66 70.34 7.56 75.08 7.31 M 72.84 21.84 C 72.58 25.83 71.60 29.75 69.93 33.40 C 69.72 33.49 69.29 33.66 69.08 33.75 C 65.37 30.05 62.81 25.16 58.09 22.48 C 57.39 22.80 55.99 23.44 55.29 23.76 C 55.35 25.13 55.03 26.74 56.43 27.56 C 60.76 30.94 62.80 36.66 67.92 39.08 C 67.63 41.27 67.16 43.44 66.47 45.54 C 65.15 45.96 63.82 46.38 62.49 46.80 C 62.36 48.30 62.43 49.81 62.70 51.30 C 65.61 51.23 70.12 52.10 71.38 48.60 C 72.99 42.26 74.58 35.89 77.04 29.81 C 78.20 26.75 78.46 23.38 77.70 20.19 C 76.06 20.44 73.22 19.48 72.84 21.84 M 33.29 31.68 C 28.83 30.96 24.21 31.48 20.81 34.72 C 19.38 34.62 17.93 34.30 16.51 34.59 C 14.40 35.92 15.83 38.53 16.84 40.09 C 19.14 43.50 20.87 47.35 23.78 50.31 C 25.39 51.60 27.43 50.36 28.60 49.08 C 26.65 45.54 25.04 41.69 25.17 37.57 C 27.28 36.73 29.79 35.78 31.94 37.04 C 35.02 39.32 35.42 43.43 37.43 46.43 C 38.90 48.32 41.80 47.26 42.26 45.10 C 41.99 40.36 37.15 36.33 39.51 31.45 C 41.88 31.59 44.62 31.57 46.28 33.58 C 47.99 35.84 48.14 38.82 48.75 41.49 C 50.35 41.74 51.98 41.76 53.59 41.62 C 54.16 36.34 52.14 30.32 47.25 27.68 C 42.49 25.39 35.29 26.01 33.29 31.68 M 31.68 73.50 C 31.63 89.55 31.83 105.60 31.58 121.65 C 35.30 122.65 39.18 122.10 42.99 122.22 C 51.31 122.17 60.59 120.85 66.63 114.54 C 72.78 108.25 73.48 98.70 72.35 90.43 C 70.74 81.63 62.64 75.27 54.11 73.80 C 46.70 72.66 39.14 73.35 31.68 73.50 M 83.49 73.45 C 83.59 89.73 83.27 106.01 83.65 122.28 C 86.23 122.20 88.80 122.20 91.37 122.26 C 91.70 106.00 91.43 89.72 91.51 73.45 C 88.84 73.45 86.16 73.45 83.49 73.45 M 165.01 73.57 C 165.03 89.81 164.92 106.06 165.07 122.31 C 167.86 122.31 170.64 122.30 173.44 122.29 C 173.51 115.26 173.46 108.23 173.47 101.20 C 176.40 101.27 179.33 101.36 182.26 101.45 C 187.65 108.45 193.00 115.49 198.58 122.35 C 201.69 122.31 204.81 122.29 207.93 122.26 C 202.31 114.69 196.34 107.39 190.48 100.01 C 194.97 98.69 199.38 96.02 201.33 91.57 C 204.21 85.53 200.93 77.62 194.62 75.38 C 185.20 71.70 174.85 73.62 165.01 73.57 M 203.02 73.62 C 209.03 82.02 215.19 90.32 221.34 98.62 C 222.07 99.59 222.71 100.69 222.59 101.96 C 222.66 108.73 222.53 115.51 222.63 122.28 C 225.44 122.30 228.26 122.31 231.08 122.30 C 231.15 115.50 231.01 108.71 231.11 101.91 C 230.97 99.83 232.63 98.36 233.72 96.79 C 239.44 89.10 244.99 81.28 250.73 73.60 C 247.81 73.53 244.89 73.52 241.98 73.58 C 236.98 80.52 232.06 87.54 226.93 94.39 C 221.43 87.97 217.09 80.63 211.83 74.02 C 209.15 72.88 205.90 73.80 203.02 73.62 Z"
            fill="#ffffff"
            opacity="1.00" />
        <path
            d=" M 39.71 79.60 C 46.01 79.07 53.06 78.63 58.49 82.50 C 62.81 85.52 64.37 91.01 64.46 96.04 C 64.46 101.90 62.86 108.29 58.15 112.17 C 53.10 116.47 45.95 116.61 39.71 115.63 C 39.73 103.62 39.74 91.61 39.71 79.60 Z"
            fill="#ffffff"
            opacity="1.00" />
        <path
            d=" M 173.48 79.53 C 179.19 79.29 185.36 78.72 190.60 81.47 C 195.22 84.30 194.14 92.30 189.17 94.14 C 184.21 96.18 178.74 95.50 173.53 95.42 C 173.43 90.12 173.47 84.83 173.48 79.53 Z"
            fill="#ffffff"
            opacity="1.00" />
        <path
            d=" M 112.39 99.94 C 112.30 98.00 112.76 95.55 114.95 94.99 C 118.27 94.54 121.64 94.85 124.98 94.81 C 131.20 94.95 137.46 94.36 143.64 95.35 C 144.07 97.54 144.48 99.74 144.49 101.98 C 144.40 127.33 144.47 152.67 144.46 178.02 C 144.44 180.00 143.81 181.88 143.25 183.76 C 133.49 183.72 123.74 183.70 113.98 183.77 C 111.79 180.60 112.41 176.66 112.37 173.04 C 112.42 148.67 112.37 124.30 112.39 99.94 Z"
            fill="#ffffff"
            opacity="1.00" />
    </g>
    <g id="#5cb8e6ff">
        <path
            d=" M 72.84 21.84 C 73.22 19.48 76.06 20.44 77.70 20.19 C 78.46 23.38 78.20 26.75 77.04 29.81 C 74.58 35.89 72.99 42.26 71.38 48.60 C 70.12 52.10 65.61 51.23 62.70 51.30 C 62.43 49.81 62.36 48.30 62.49 46.80 C 63.82 46.38 65.15 45.96 66.47 45.54 C 67.16 43.44 67.63 41.27 67.92 39.08 C 62.80 36.66 60.76 30.94 56.43 27.56 C 55.03 26.74 55.35 25.13 55.29 23.76 C 55.99 23.44 57.39 22.80 58.09 22.48 C 62.81 25.16 65.37 30.05 69.08 33.75 C 69.29 33.66 69.72 33.49 69.93 33.40 C 71.60 29.75 72.58 25.83 72.84 21.84 Z"
            fill="#5cb8e6"
            opacity="1.00" />
        <path
            d=" M 33.29 31.68 C 35.29 26.01 42.49 25.39 47.25 27.68 C 52.14 30.32 54.16 36.34 53.59 41.62 C 51.98 41.76 50.35 41.74 48.75 41.49 C 48.14 38.82 47.99 35.84 46.28 33.58 C 44.62 31.57 41.88 31.59 39.51 31.45 C 37.15 36.33 41.99 40.36 42.26 45.10 C 41.80 47.26 38.90 48.32 37.43 46.43 C 35.42 43.43 35.02 39.32 31.94 37.04 C 29.79 35.78 27.28 36.73 25.17 37.57 C 25.04 41.69 26.65 45.54 28.60 49.08 C 27.43 50.36 25.39 51.60 23.78 50.31 C 20.87 47.35 19.14 43.50 16.84 40.09 C 15.83 38.53 14.40 35.92 16.51 34.59 C 17.93 34.30 19.38 34.62 20.81 34.72 C 24.21 31.48 28.83 30.96 33.29 31.68 Z"
            fill="#5cb8e6"
            opacity="1.00" />
        <path
            d=" M 126.73 65.17 C 129.24 64.97 131.25 66.41 132.31 68.63 C 137.77 77.57 143.22 86.52 148.77 95.40 C 150.92 98.51 150.36 102.44 150.41 106.00 C 150.36 123.07 150.39 140.15 150.40 157.22 C 150.32 164.47 150.42 171.73 150.36 178.98 C 150.41 180.53 149.73 181.95 149.24 183.39 C 147.25 183.63 145.25 183.74 143.25 183.76 C 143.81 181.88 144.44 180.00 144.46 178.02 C 144.47 152.67 144.40 127.33 144.49 101.98 C 144.48 99.74 144.07 97.54 143.64 95.35 C 137.46 94.36 131.20 94.95 124.98 94.81 C 121.64 94.85 118.27 94.54 114.95 94.99 C 112.76 95.55 112.30 98.00 112.39 99.94 C 112.37 124.30 112.42 148.67 112.37 173.04 C 112.41 176.66 111.79 180.60 113.98 183.77 C 112.02 183.73 110.07 183.69 108.12 183.62 C 107.58 182.85 107.05 182.09 106.51 181.33 C 106.49 173.79 106.55 166.26 106.48 158.72 C 106.54 139.11 106.46 119.50 106.51 99.89 C 106.43 97.60 107.74 95.65 108.89 93.79 C 114.99 84.34 120.57 74.58 126.73 65.17 Z"
            fill="#5cb8e6"
            opacity="1.00" />
        <path
            d=" M 31.68 73.50 C 39.14 73.35 46.70 72.66 54.11 73.80 C 62.64 75.27 70.74 81.63 72.35 90.43 C 73.48 98.70 72.78 108.25 66.63 114.54 C 60.59 120.85 51.31 122.17 42.99 122.22 C 39.18 122.10 35.30 122.65 31.58 121.65 C 31.83 105.60 31.63 89.55 31.68 73.50 M 39.71 79.60 C 39.74 91.61 39.73 103.62 39.71 115.63 C 45.95 116.61 53.10 116.47 58.15 112.17 C 62.86 108.29 64.46 101.90 64.46 96.04 C 64.37 91.01 62.81 85.52 58.49 82.50 C 53.06 78.63 46.01 79.07 39.71 79.60 Z"
            fill="#5cb8e6"
            opacity="1.00" />
        <path
            d=" M 83.49 73.45 C 86.16 73.45 88.84 73.45 91.51 73.45 C 91.43 89.72 91.70 106.00 91.37 122.26 C 88.80 122.20 86.23 122.20 83.65 122.28 C 83.27 106.01 83.59 89.73 83.49 73.45 Z"
            fill="#5cb8e6"
            opacity="1.00" />
        <path
            d=" M 165.01 73.57 C 174.85 73.62 185.20 71.70 194.62 75.38 C 200.93 77.62 204.21 85.53 201.33 91.57 C 199.38 96.02 194.97 98.69 190.48 100.01 C 196.34 107.39 202.31 114.69 207.93 122.26 C 204.81 122.29 201.69 122.31 198.58 122.35 C 193.00 115.49 187.65 108.45 182.26 101.45 C 179.33 101.36 176.40 101.27 173.47 101.20 C 173.46 108.23 173.51 115.26 173.44 122.29 C 170.64 122.30 167.86 122.31 165.07 122.31 C 164.92 106.06 165.03 89.81 165.01 73.57 M 173.48 79.53 C 173.47 84.83 173.43 90.12 173.53 95.42 C 178.74 95.50 184.21 96.18 189.17 94.14 C 194.14 92.30 195.22 84.30 190.60 81.47 C 185.36 78.72 179.19 79.29 173.48 79.53 Z"
            fill="#5cb8e6"
            opacity="1.00" />
        <path
            d=" M 203.02 73.62 C 205.90 73.80 209.15 72.88 211.83 74.02 C 217.09 80.63 221.43 87.97 226.93 94.39 C 232.06 87.54 236.98 80.52 241.98 73.58 C 244.89 73.52 247.81 73.53 250.73 73.60 C 244.99 81.28 239.44 89.10 233.72 96.79 C 232.63 98.36 230.97 99.83 231.11 101.91 C 231.01 108.71 231.15 115.50 231.08 122.30 C 228.26 122.31 225.44 122.30 222.63 122.28 C 222.53 115.51 222.66 108.73 222.59 101.96 C 222.71 100.69 222.07 99.59 221.34 98.62 C 215.19 90.32 209.03 82.02 203.02 73.62 Z"
            fill="#5cb8e6"
            opacity="1.00" />
    </g>
</svg>
